<?xml version="1.0" encoding="UTF-8" standalone="no"?>
<!DOCTYPE svg PUBLIC "-//W3C//DTD SVG 1.1//EN"
 "http://www.w3.org/Graphics/SVG/1.1/DTD/svg11.dtd">
<!-- Generated by graphviz version 11.0.0 (20240428.1522)
 -->
<!-- Pages: 1 -->
<svg width="1160pt" height="260pt"
 viewBox="0.00 0.00 1159.54 260.00" xmlns="http://www.w3.org/2000/svg" xmlns:xlink="http://www.w3.org/1999/xlink">
<g id="graph0" class="graph" transform="scale(1 1) rotate(0) translate(4 256)">
<polygon fill="white" stroke="none" points="-4,4 -4,-256 1155.54,-256 1155.54,4 -4,4"/>
<!-- [root] @repo/eslint&#45;config#build -->
<g id="node1" class="node">
<title>[root] @repo/eslint&#45;config#build</title>
<ellipse fill="none" stroke="black" cx="447.59" cy="-90" rx="132.22" ry="18"/>
<text text-anchor="middle" x="447.59" y="-84.95" font-family="Times,serif" font-size="14.00">[root] @repo/eslint&#45;config#build</text>
</g>
<!-- [root] ___ROOT___ -->
<g id="node2" class="node">
<title>[root] ___ROOT___</title>
<ellipse fill="none" stroke="black" cx="585.59" cy="-18" rx="87.18" ry="18"/>
<text text-anchor="middle" x="585.59" y="-12.95" font-family="Times,serif" font-size="14.00">[root] ___ROOT___</text>
</g>
<!-- [root] @repo/eslint&#45;config#build&#45;&gt;[root] ___ROOT___ -->
<g id="edge1" class="edge">
<title>[root] @repo/eslint&#45;config#build&#45;&gt;[root] ___ROOT___</title>
<path fill="none" stroke="black" d="M480.65,-72.23C499.53,-62.66 523.38,-50.56 543.58,-40.31"/>
<polygon fill="black" stroke="black" points="545.08,-43.48 552.41,-35.83 541.91,-37.24 545.08,-43.48"/>
</g>
<!-- [root] @repo/eslint&#45;config#lint -->
<g id="node3" class="node">
<title>[root] @repo/eslint&#45;config#lint</title>
<ellipse fill="none" stroke="black" cx="723.59" cy="-90" rx="125.56" ry="18"/>
<text text-anchor="middle" x="723.59" y="-84.95" font-family="Times,serif" font-size="14.00">[root] @repo/eslint&#45;config#lint</text>
</g>
<!-- [root] @repo/eslint&#45;config#lint&#45;&gt;[root] ___ROOT___ -->
<g id="edge2" class="edge">
<title>[root] @repo/eslint&#45;config#lint&#45;&gt;[root] ___ROOT___</title>
<path fill="none" stroke="black" d="M690.54,-72.23C671.66,-62.66 647.81,-50.56 627.61,-40.31"/>
<polygon fill="black" stroke="black" points="629.28,-37.24 618.78,-35.83 626.11,-43.48 629.28,-37.24"/>
</g>
<!-- [root] @repo/typescript&#45;config#build -->
<g id="node4" class="node">
<title>[root] @repo/typescript&#45;config#build</title>
<ellipse fill="none" stroke="black" cx="148.59" cy="-90" rx="148.59" ry="18"/>
<text text-anchor="middle" x="148.59" y="-84.95" font-family="Times,serif" font-size="14.00">[root] @repo/typescript&#45;config#build</text>
</g>
<!-- [root] @repo/typescript&#45;config#build&#45;&gt;[root] ___ROOT___ -->
<g id="edge3" class="edge">
<title>[root] @repo/typescript&#45;config#build&#45;&gt;[root] ___ROOT___</title>
<path fill="none" stroke="black" d="M235.72,-75.04C314.98,-62.35 430.94,-43.77 507.32,-31.54"/>
<polygon fill="black" stroke="black" points="507.47,-35.06 516.79,-30.02 506.37,-28.15 507.47,-35.06"/>
</g>
<!-- [root] @repo/typescript&#45;config#lint -->
<g id="node5" class="node">
<title>[root] @repo/typescript&#45;config#lint</title>
<ellipse fill="none" stroke="black" cx="1009.59" cy="-90" rx="141.94" ry="18"/>
<text text-anchor="middle" x="1009.59" y="-84.95" font-family="Times,serif" font-size="14.00">[root] @repo/typescript&#45;config#lint</text>
</g>
<!-- [root] @repo/typescript&#45;config#lint&#45;&gt;[root] ___ROOT___ -->
<g id="edge4" class="edge">
<title>[root] @repo/typescript&#45;config#lint&#45;&gt;[root] ___ROOT___</title>
<path fill="none" stroke="black" d="M925.32,-75.09C848.94,-62.48 737.3,-44.04 663.1,-31.79"/>
<polygon fill="black" stroke="black" points="663.9,-28.38 653.47,-30.21 662.76,-35.29 663.9,-28.38"/>
</g>
<!-- [root] @repo/ui#build -->
<g id="node6" class="node">
<title>[root] @repo/ui#build</title>
<ellipse fill="none" stroke="black" cx="260.59" cy="-162" rx="92.81" ry="18"/>
<text text-anchor="middle" x="260.59" y="-156.95" font-family="Times,serif" font-size="14.00">[root] @repo/ui#build</text>
</g>
<!-- [root] @repo/ui#build&#45;&gt;[root] @repo/eslint&#45;config#build -->
<g id="edge5" class="edge">
<title>[root] @repo/ui#build&#45;&gt;[root] @repo/eslint&#45;config#build</title>
<path fill="none" stroke="black" d="M302.1,-145.46C329.03,-135.38 364.39,-122.15 393.51,-111.24"/>
<polygon fill="black" stroke="black" points="394.38,-114.66 402.52,-107.87 391.92,-108.1 394.38,-114.66"/>
</g>
<!-- [root] @repo/ui#build&#45;&gt;[root] @repo/typescript&#45;config#build -->
<g id="edge6" class="edge">
<title>[root] @repo/ui#build&#45;&gt;[root] @repo/typescript&#45;config#build</title>
<path fill="none" stroke="black" d="M234.05,-144.41C219.48,-135.3 201.19,-123.87 185.27,-113.92"/>
<polygon fill="black" stroke="black" points="187.34,-111.09 177.01,-108.76 183.63,-117.03 187.34,-111.09"/>
</g>
<!-- [root] @repo/ui#lint -->
<g id="node7" class="node">
<title>[root] @repo/ui#lint</title>
<ellipse fill="none" stroke="black" cx="828.59" cy="-162" rx="86.15" ry="18"/>
<text text-anchor="middle" x="828.59" y="-156.95" font-family="Times,serif" font-size="14.00">[root] @repo/ui#lint</text>
</g>
<!-- [root] @repo/ui#lint&#45;&gt;[root] @repo/eslint&#45;config#lint -->
<g id="edge7" class="edge">
<title>[root] @repo/ui#lint&#45;&gt;[root] @repo/eslint&#45;config#lint</title>
<path fill="none" stroke="black" d="M803.71,-144.41C790.18,-135.39 773.23,-124.09 758.4,-114.21"/>
<polygon fill="black" stroke="black" points="760.55,-111.43 750.29,-108.8 756.67,-117.25 760.55,-111.43"/>
</g>
<!-- [root] @repo/ui#lint&#45;&gt;[root] @repo/typescript&#45;config#lint -->
<g id="edge8" class="edge">
<title>[root] @repo/ui#lint&#45;&gt;[root] @repo/typescript&#45;config#lint</title>
<path fill="none" stroke="black" d="M868.32,-145.64C894.15,-135.65 928.15,-122.5 956.33,-111.6"/>
<polygon fill="black" stroke="black" points="957.33,-114.96 965.4,-108.09 954.81,-108.44 957.33,-114.96"/>
</g>
<!-- [root] docs#build -->
<g id="node8" class="node">
<title>[root] docs#build</title>
<ellipse fill="none" stroke="black" cx="256.59" cy="-234" rx="74.89" ry="18"/>
<text text-anchor="middle" x="256.59" y="-228.95" font-family="Times,serif" font-size="14.00">[root] docs#build</text>
</g>
<!-- [root] docs#build&#45;&gt;[root] @repo/eslint&#45;config#build -->
<g id="edge9" class="edge">
<title>[root] docs#build&#45;&gt;[root] @repo/eslint&#45;config#build</title>
<path fill="none" stroke="black" d="M294.2,-218.01C315.32,-208.69 341.57,-195.52 362.59,-180 387.26,-161.79 410.99,-136.02 427.07,-116.9"/>
<polygon fill="black" stroke="black" points="429.7,-119.22 433.36,-109.27 424.3,-114.76 429.7,-119.22"/>
</g>
<!-- [root] docs#build&#45;&gt;[root] @repo/typescript&#45;config#build -->
<g id="edge10" class="edge">
<title>[root] docs#build&#45;&gt;[root] @repo/typescript&#45;config#build</title>
<path fill="none" stroke="black" d="M211.48,-219.26C192.07,-211.01 171.03,-198.44 158.59,-180 146.75,-162.45 144.68,-138.39 145.33,-119.71"/>
<polygon fill="black" stroke="black" points="148.82,-120.05 145.98,-109.84 141.83,-119.59 148.82,-120.05"/>
</g>
<!-- [root] docs#build&#45;&gt;[root] @repo/ui#build -->
<g id="edge11" class="edge">
<title>[root] docs#build&#45;&gt;[root] @repo/ui#build</title>
<path fill="none" stroke="black" d="M257.58,-215.7C258,-208.41 258.5,-199.73 258.96,-191.54"/>
<polygon fill="black" stroke="black" points="262.45,-191.8 259.53,-181.62 255.47,-191.4 262.45,-191.8"/>
</g>
<!-- [root] docs#lint -->
<g id="node9" class="node">
<title>[root] docs#lint</title>
<ellipse fill="none" stroke="black" cx="827.59" cy="-234" rx="68.24" ry="18"/>
<text text-anchor="middle" x="827.59" y="-228.95" font-family="Times,serif" font-size="14.00">[root] docs#lint</text>
</g>
<!-- [root] docs#lint&#45;&gt;[root] @repo/eslint&#45;config#lint -->
<g id="edge12" class="edge">
<title>[root] docs#lint&#45;&gt;[root] @repo/eslint&#45;config#lint</title>
<path fill="none" stroke="black" d="M785.73,-219.47C766.72,-211.14 745.8,-198.44 733.59,-180 721.91,-162.34 719.83,-138.29 720.44,-119.64"/>
<polygon fill="black" stroke="black" points="723.92,-120 721.06,-109.8 716.93,-119.56 723.92,-120"/>
</g>
<!-- [root] docs#lint&#45;&gt;[root] @repo/typescript&#45;config#lint -->
<g id="edge13" class="edge">
<title>[root] docs#lint&#45;&gt;[root] @repo/typescript&#45;config#lint</title>
<path fill="none" stroke="black" d="M860.64,-217.83C879.87,-208.27 904.1,-194.93 923.59,-180 947.93,-161.36 971.85,-135.86 988.26,-116.93"/>
<polygon fill="black" stroke="black" points="990.88,-119.26 994.7,-109.38 985.55,-114.72 990.88,-119.26"/>
</g>
<!-- [root] docs#lint&#45;&gt;[root] @repo/ui#lint -->
<g id="edge14" class="edge">
<title>[root] docs#lint&#45;&gt;[root] @repo/ui#lint</title>
<path fill="none" stroke="black" d="M827.84,-215.7C827.95,-208.41 828.07,-199.73 828.19,-191.54"/>
<polygon fill="black" stroke="black" points="831.69,-191.67 828.33,-181.62 824.69,-191.57 831.69,-191.67"/>
</g>
<!-- [root] web#build -->
<g id="node10" class="node">
<title>[root] web#build</title>
<ellipse fill="none" stroke="black" cx="422.59" cy="-234" rx="73.36" ry="18"/>
<text text-anchor="middle" x="422.59" y="-228.95" font-family="Times,serif" font-size="14.00">[root] web#build</text>
</g>
<!-- [root] web#build&#45;&gt;[root] @repo/eslint&#45;config#build -->
<g id="edge15" class="edge">
<title>[root] web#build&#45;&gt;[root] @repo/eslint&#45;config#build</title>
<path fill="none" stroke="black" d="M426.37,-215.86C428.6,-205.5 431.4,-192.02 433.59,-180 437.26,-159.87 440.84,-137.07 443.46,-119.59"/>
<polygon fill="black" stroke="black" points="446.89,-120.34 444.89,-109.93 439.96,-119.31 446.89,-120.34"/>
</g>
<!-- [root] web#build&#45;&gt;[root] @repo/typescript&#45;config#build -->
<g id="edge16" class="edge">
<title>[root] web#build&#45;&gt;[root] @repo/typescript&#45;config#build</title>
<path fill="none" stroke="black" d="M415.62,-215.76C406.5,-195.44 388.56,-162.15 362.59,-144 335.33,-124.94 301.91,-112.71 269.65,-104.87"/>
<polygon fill="black" stroke="black" points="270.77,-101.54 260.24,-102.71 269.21,-108.36 270.77,-101.54"/>
</g>
<!-- [root] web#build&#45;&gt;[root] @repo/ui#build -->
<g id="edge17" class="edge">
<title>[root] web#build&#45;&gt;[root] @repo/ui#build</title>
<path fill="none" stroke="black" d="M387.44,-217.81C364.16,-207.75 333.33,-194.43 307.9,-183.44"/>
<polygon fill="black" stroke="black" points="309.32,-180.24 298.75,-179.49 306.55,-186.67 309.32,-180.24"/>
</g>
<!-- [root] web#lint -->
<g id="node11" class="node">
<title>[root] web#lint</title>
<ellipse fill="none" stroke="black" cx="980.59" cy="-234" rx="66.71" ry="18"/>
<text text-anchor="middle" x="980.59" y="-228.95" font-family="Times,serif" font-size="14.00">[root] web#lint</text>
</g>
<!-- [root] web#lint&#45;&gt;[root] @repo/eslint&#45;config#lint -->
<g id="edge18" class="edge">
<title>[root] web#lint&#45;&gt;[root] @repo/eslint&#45;config#lint</title>
<path fill="none" stroke="black" d="M974.15,-215.84C965.66,-195.6 948.8,-162.38 923.59,-144 896.85,-124.5 863.46,-112.17 831.65,-104.38"/>
<polygon fill="black" stroke="black" points="832.49,-100.98 821.96,-102.14 830.92,-107.8 832.49,-100.98"/>
</g>
<!-- [root] web#lint&#45;&gt;[root] @repo/typescript&#45;config#lint -->
<g id="edge19" class="edge">
<title>[root] web#lint&#45;&gt;[root] @repo/typescript&#45;config#lint</title>
<path fill="none" stroke="black" d="M985.53,-215.91C988.41,-205.57 991.98,-192.09 994.59,-180 998.92,-159.96 1002.74,-137.17 1005.45,-119.66"/>
<polygon fill="black" stroke="black" points="1008.87,-120.39 1006.9,-109.98 1001.95,-119.35 1008.87,-120.39"/>
</g>
<!-- [root] web#lint&#45;&gt;[root] @repo/ui#lint -->
<g id="edge20" class="edge">
<title>[root] web#lint&#45;&gt;[root] @repo/ui#lint</title>
<path fill="none" stroke="black" d="M947.99,-217.98C926.18,-207.94 897.2,-194.6 873.26,-183.57"/>
<polygon fill="black" stroke="black" points="874.92,-180.48 864.37,-179.48 871.99,-186.84 874.92,-180.48"/>
</g>
</g>
</svg>
